<svg width="226" height="50" viewBox="0 0 226 50" fill="none" xmlns="http://www.w3.org/2000/svg">
<path d="M30.384 3.944L30.128 5.096H9.392L5.744 25.896H24.56L24.368 27.048H5.552L1.648 49H0.368L8.368 3.944H30.384ZM31.84 31.72C32.48 28.0933 33.7387 24.9573 35.616 22.312C37.4933 19.624 39.84 17.576 42.656 16.168C45.472 14.7173 48.5227 13.992 51.808 13.992C55.776 13.992 58.9547 15.016 61.344 17.064C63.7333 19.112 65.12 21.7573 65.504 25L67.36 14.44H68.576L62.432 49H61.216L63.072 38.44C61.5787 41.64 59.2747 44.2853 56.16 46.376C53.0453 48.424 49.504 49.448 45.536 49.448C41.184 49.448 37.7493 48.232 35.232 45.8C32.7147 43.368 31.456 40.04 31.456 35.816C31.456 34.4933 31.584 33.128 31.84 31.72ZM64.288 31.72C64.5013 30.6533 64.608 29.4373 64.608 28.072C64.608 24.104 63.4347 20.968 61.088 18.664C58.7413 16.3173 55.584 15.144 51.616 15.144C46.8373 15.144 42.784 16.6373 39.456 19.624C36.128 22.568 34.016 26.6 33.12 31.72C32.864 33.128 32.736 34.4507 32.736 35.688C32.736 39.656 33.8667 42.7493 36.128 44.968C38.432 47.1867 41.632 48.296 45.728 48.296C48.7147 48.296 51.5093 47.6133 54.112 46.248C56.7573 44.84 58.9547 42.8987 60.704 40.424C62.496 37.9067 63.6907 35.0053 64.288 31.72ZM79.2575 22.888C81.6468 16.744 86.7242 13.672 94.4895 13.672L94.2335 15.08H93.6575C90.1162 15.08 86.8948 16.104 83.9935 18.152C81.0922 20.1573 79.1935 23.4213 78.2975 27.944L74.5855 49H73.3055L79.4495 14.44H80.7295L79.2575 22.888ZM141.651 13.672C144.893 13.672 147.517 14.5893 149.523 16.424C151.528 18.2587 152.531 21.032 152.531 24.744C152.531 25.9813 152.403 27.3467 152.147 28.84L148.563 49H147.347L150.931 28.712C151.187 27.304 151.315 25.9813 151.315 24.744C151.315 21.5013 150.44 19.048 148.691 17.384C146.984 15.6773 144.573 14.824 141.459 14.824C137.661 14.824 134.333 16.1467 131.475 18.792C128.659 21.3947 126.739 25.192 125.715 30.184L122.387 49H121.171L124.755 28.712C125.011 27.304 125.139 25.9813 125.139 24.744C125.139 21.5013 124.264 19.048 122.515 17.384C120.808 15.6773 118.397 14.824 115.283 14.824C111.485 14.824 108.157 16.1467 105.299 18.792C102.483 21.3947 100.563 25.192 99.5385 30.184L96.2105 49H94.9305L101.075 14.44H102.355L100.755 23.528C102.205 20.2427 104.232 17.7893 106.835 16.168C109.437 14.504 112.317 13.672 115.475 13.672C118.717 13.672 121.32 14.5893 123.283 16.424C125.288 18.216 126.312 20.9467 126.354 24.616C127.72 20.9893 129.768 18.2587 132.499 16.424C135.229 14.5893 138.28 13.672 141.651 13.672Z" fill="#E7E8E3"/>
<path d="M186.894 4.392V9.128H167.502V24.168H183.246V28.904H167.502V49H161.678V4.392H186.894ZM196.936 8.232C195.827 8.232 194.888 7.848 194.12 7.08C193.352 6.312 192.968 5.37333 192.968 4.264C192.968 3.15466 193.352 2.216 194.12 1.448C194.888 0.679998 195.827 0.295998 196.936 0.295998C198.003 0.295998 198.899 0.679998 199.624 1.448C200.392 2.216 200.776 3.15466 200.776 4.264C200.776 5.37333 200.392 6.312 199.624 7.08C198.899 7.848 198.003 8.232 196.936 8.232ZM199.752 13.928V49H193.928V13.928H199.752ZM216.782 18.728V39.4C216.782 41.1067 217.145 42.3227 217.87 43.048C218.595 43.7307 219.854 44.072 221.646 44.072H225.934V49H220.686C217.443 49 215.011 48.2533 213.39 46.76C211.769 45.2667 210.958 42.8133 210.958 39.4V18.728H206.414V13.928H210.958V5.096H216.782V13.928H225.934V18.728H216.782Z" fill="#99DAB3"/>
</svg>
